<svg version="1.0" xmlns="http://www.w3.org/2000/svg" preserveAspectRatio="xMidYMid meet" viewBox="131 205.88 234.92 59.97">

<g transform="translate(0.000000,500.000000) scale(0.100000,-0.100000)" fill="#000000" stroke="none">
<path d="M2157 2933 c-4 -3 -7 -136 -7 -295 l0 -288 60 0 c54 0 60 2 60 20 0 20 0 20 29 -1 72 -53 188 -26 236 54 l25 42 0 -57 0 -58 60 0 60 0 0 67 0 67 68 -67 68 -67 277 0 277 0 0 55 0 55 -106 0 -106 0 59 49 c99 83 150 176 137 249 -19 105 -75 153 -188 160 -59 4 -79 1 -113 -16 -42 -22 -84 -65 -108 -113 l-15 -29 51 -25 c28 -15 52 -25 53 -23 2 2 13 20 25 41 26 43 48 57 89 57 40 0 67 -32 67 -80 0 -53 -52 -124 -176 -245 l-101 -98 -74 74 -74 74 82 82 83 83 -81 0 -80 0 -54 -55 -55 -56 -5 173 -5 173 -57 3 -58 3 0 -178 0 -177 -27 42 c-50 76 -144 102 -223 62 l-40 -20 0 135 0 135 -53 0 c-30 0 -57 -3 -60 -7z m255 -350 c12 -11 18 -30 18 -58 0 -48 -19 -71 -68 -81 -26 -5 -36 -1 -62 24 -18 19 -30 41 -30 57 0 16 12 38 30 57 26 25 36 29 62 24 18 -3 40 -14 50 -23z"/>
<path d="M1360 2765 c0 -63 -1 -65 -25 -65 -23 0 -25 -4 -25 -45 0 -41 2 -45 25 -45 25 0 25 -1 25 -92 0 -75 4 -99 20 -126 28 -46 54 -52 180 -45 l110 6 0 117 c0 127 5 140 55 140 50 0 55 -12 55 -142 l0 -118 60 0 60 0 0 103 c0 120 11 151 56 155 55 5 64 -14 64 -144 l0 -114 60 0 60 0 0 135 c0 154 -9 183 -64 209 -58 28 -129 16 -166 -29 -12 -14 -15 -14 -34 4 -47 44 -121 53 -173 21 -27 -16 -33 -17 -33 -5 0 12 -18 15 -95 15 l-95 0 0 65 0 65 -60 0 -60 0 0 -65z m188 -245 c1 -47 -1 -80 -5 -75 -5 6 -19 10 -33 10 -24 0 -25 2 -28 78 l-3 78 33 -3 33 -3 3 -85z"/>
<path d="M3550 2487 c-14 -7 -31 -25 -38 -40 -36 -76 64 -142 123 -82 31 30 32 66 3 99 -29 31 -57 39 -88 23z"/>
</g>
</svg>